<svg version="1.1" xmlns="http://www.w3.org/2000/svg" width="1024" height="1024">
<path d="M0 0 C337.92 0 675.84 0 1024 0 C1024 337.92 1024 675.84 1024 1024 C686.08 1024 348.16 1024 0 1024 C0 686.08 0 348.16 0 0 Z " fill="#FEFEFE" transform="translate(0,0)"/>
<path d="M0 0 C1.949 1.605 1.949 1.605 4.762 4.355 C4.762 5.015 4.762 5.675 4.762 6.355 C5.422 6.355 6.082 6.355 6.762 6.355 C6.102 2.395 5.442 -1.565 4.762 -5.645 C10.249 -4.547 10.786 -4.002 13.762 0.355 C15.333 3.499 14.993 6.913 14.762 10.355 C14.432 11.345 14.102 12.335 13.762 13.355 C14.597 13.251 14.597 13.251 15.449 13.145 C21.303 12.729 24.568 13.785 29.043 17.594 C40.04 28.866 39.044 46.855 38.918 61.422 C38.707 72.364 37.86 83.111 33.762 93.355 C34.628 93.438 35.494 93.52 36.387 93.605 C41.741 94.795 45.313 97.361 48.637 101.668 C52.462 108.279 51.88 116.831 50.098 124.043 C46.403 133.297 37.866 142.156 28.796 146.241 C24.179 148.125 19.489 149.772 14.762 151.355 C14.617 152.49 14.473 153.624 14.324 154.793 C13.762 158.355 13.762 158.355 12.762 159.355 C12.661 161.722 12.622 164.059 12.629 166.426 C12.628 167.14 12.627 167.855 12.626 168.591 C12.625 170.109 12.627 171.627 12.631 173.146 C12.637 175.45 12.631 177.754 12.625 180.059 C12.626 181.535 12.627 183.012 12.629 184.488 C12.626 185.512 12.626 185.512 12.623 186.557 C12.644 190.93 13.058 195.053 13.762 199.355 C14.327 199.398 14.892 199.44 15.474 199.483 C22.853 200.12 30.013 201.467 37.266 202.938 C39.182 203.321 39.182 203.321 41.136 203.712 C43.83 204.251 46.524 204.793 49.217 205.338 C52.616 206.026 56.016 206.707 59.416 207.385 C101.057 215.702 101.057 215.702 110.762 220.355 C111.516 220.713 112.27 221.07 113.047 221.438 C131.469 230.885 140.57 250.453 146.762 269.355 C147.894 273.331 148.879 277.331 149.824 281.355 C150.082 282.437 150.339 283.518 150.604 284.633 C152.342 292.101 153.768 299.571 154.824 307.166 C155.31 310.652 155.893 314.011 156.801 317.414 C157.797 321.221 158.16 324.921 158.387 328.855 C158.461 330.083 158.536 331.31 158.613 332.574 C158.662 333.492 158.711 334.41 158.762 335.355 C159.801 335.309 160.84 335.263 161.91 335.215 C172.565 334.878 180.53 335.717 189.137 342.605 C195.947 349.031 198.737 357.609 199.098 366.812 C199.128 368.931 199.14 371.049 199.137 373.168 C199.134 374.869 199.134 374.869 199.132 376.605 C198.896 393.361 195.979 409.821 191.629 425.973 C190.6 429.987 189.968 433.998 189.346 438.091 C188.714 441.62 187.865 445.041 186.965 448.512 C184.569 457.908 182.535 467.374 180.512 476.855 C180.145 478.565 179.778 480.275 179.41 481.984 C178.525 486.107 177.642 490.231 176.762 494.355 C178.024 494.345 179.285 494.335 180.585 494.324 C185.256 494.288 189.926 494.265 194.596 494.246 C196.62 494.236 198.643 494.222 200.667 494.205 C203.571 494.18 206.475 494.169 209.379 494.16 C210.287 494.15 211.196 494.14 212.132 494.129 C212.972 494.129 213.813 494.129 214.679 494.128 C215.421 494.124 216.163 494.12 216.927 494.115 C218.762 494.355 218.762 494.355 220.762 496.355 C220.432 499.653 220.139 500.978 217.762 503.355 C215.835 503.606 215.835 503.606 213.426 503.607 C212.508 503.613 211.589 503.618 210.643 503.623 C209.117 503.617 209.117 503.617 207.56 503.61 C206.482 503.613 205.403 503.616 204.292 503.62 C200.635 503.628 196.978 503.622 193.32 503.616 C190.689 503.619 188.058 503.623 185.427 503.628 C179.684 503.637 173.941 503.638 168.198 503.634 C159.658 503.629 151.119 503.635 142.579 503.643 C126.442 503.659 110.306 503.66 94.169 503.658 C81.712 503.656 69.254 503.658 56.797 503.662 C55.009 503.663 53.222 503.663 51.434 503.664 C48.741 503.665 46.048 503.666 43.355 503.667 C18.303 503.675 -6.75 503.679 -31.802 503.675 C-32.747 503.675 -33.692 503.675 -34.666 503.675 C-39.457 503.674 -44.247 503.673 -49.038 503.672 C-49.99 503.672 -50.941 503.672 -51.922 503.672 C-53.846 503.671 -55.77 503.671 -57.694 503.671 C-87.643 503.665 -117.591 503.673 -147.539 503.692 C-181.157 503.712 -214.776 503.723 -248.394 503.719 C-251.976 503.719 -255.558 503.718 -259.139 503.718 C-260.462 503.718 -260.462 503.718 -261.812 503.718 C-275.15 503.717 -288.489 503.723 -301.827 503.734 C-316.989 503.746 -332.151 503.747 -347.313 503.735 C-355.806 503.728 -364.3 503.73 -372.793 503.744 C-378.458 503.752 -384.123 503.749 -389.788 503.738 C-393.022 503.731 -396.255 503.731 -399.488 503.741 C-402.962 503.751 -406.436 503.743 -409.911 503.73 C-410.926 503.738 -411.941 503.745 -412.987 503.752 C-413.908 503.745 -414.828 503.738 -415.777 503.73 C-416.97 503.73 -416.97 503.73 -418.187 503.73 C-420.773 503.258 -421.694 502.457 -423.238 500.355 C-422.817 495.934 -422.817 495.934 -421.238 494.355 C-418.377 494.26 -415.541 494.23 -412.679 494.242 C-411.782 494.242 -410.884 494.242 -409.96 494.242 C-406.978 494.242 -403.997 494.25 -401.016 494.258 C-398.954 494.26 -396.893 494.261 -394.832 494.262 C-389.395 494.266 -383.959 494.276 -378.522 494.287 C-372.979 494.297 -367.436 494.302 -361.893 494.307 C-351.008 494.317 -340.123 494.334 -329.238 494.355 C-329.576 493.142 -329.913 491.928 -330.261 490.677 C-330.711 489.056 -331.161 487.436 -331.612 485.816 C-331.944 484.62 -331.944 484.62 -332.283 483.401 C-333.937 477.447 -335.579 471.49 -337.217 465.531 C-341.128 451.305 -345.14 437.111 -349.224 422.934 C-350.293 419.221 -351.359 415.507 -352.426 411.793 C-352.759 410.639 -353.092 409.485 -353.436 408.297 C-354.979 402.92 -356.462 397.542 -357.797 392.109 C-359.062 386.963 -360.538 381.914 -362.113 376.855 C-364.457 369.193 -366.513 361.497 -368.416 353.715 C-369.753 348.257 -371.166 342.83 -372.676 337.418 C-372.876 336.697 -373.076 335.977 -373.282 335.234 C-374.439 331.102 -375.646 326.987 -376.887 322.879 C-377.163 321.949 -377.44 321.02 -377.725 320.062 C-378.259 318.271 -378.803 316.482 -379.359 314.698 C-381.21 308.458 -382.593 302.174 -380.355 295.867 C-377.189 291.218 -374.025 287.636 -368.493 285.765 C-365.383 285.2 -362.389 285.233 -359.227 285.235 C-358.522 285.234 -357.816 285.234 -357.089 285.233 C-354.724 285.231 -352.36 285.236 -349.995 285.242 C-348.3 285.242 -346.605 285.242 -344.91 285.242 C-340.307 285.241 -335.704 285.247 -331.101 285.254 C-326.291 285.26 -321.481 285.261 -316.671 285.262 C-307.562 285.265 -298.453 285.273 -289.344 285.283 C-278.974 285.295 -268.605 285.3 -258.235 285.305 C-236.903 285.316 -215.57 285.333 -194.238 285.355 C-193.929 284.409 -193.619 283.463 -193.3 282.487 C-191.889 278.324 -189.879 274.682 -187.738 270.855 C-187.297 270.066 -186.855 269.276 -186.401 268.463 C-167.593 235.415 -144.291 222.626 -108.652 212.812 C-104.076 211.559 -99.498 210.313 -94.915 209.085 C-93.041 208.574 -91.17 208.047 -89.304 207.509 C-88.341 207.234 -87.378 206.959 -86.387 206.676 C-85.086 206.297 -85.086 206.297 -83.759 205.911 C-81.173 205.341 -78.878 205.255 -76.238 205.355 C-79.601 201.42 -82.953 197.579 -86.738 194.043 C-97.756 183.075 -104.039 167.095 -106.821 152.027 C-107.723 147.43 -109.156 144.837 -112.238 141.355 C-116.164 134.501 -116.643 127.826 -116.957 120.055 C-117.288 115.702 -118.271 111.859 -119.617 107.723 C-120.285 105.177 -120.346 102.976 -120.238 100.355 C-118.258 100.355 -116.278 100.355 -114.238 100.355 C-114.31 99.219 -114.383 98.082 -114.457 96.91 C-115.038 87.373 -115.377 77.913 -115.238 68.355 C-115.994 68.215 -116.749 68.074 -117.527 67.93 C-125.123 66.321 -130.598 62.659 -135.566 56.785 C-139.807 50.126 -139.389 40.931 -138.238 33.355 C-132.79 15.957 -117.349 3.475 -101.805 -4.832 C-96.078 -7.784 -90.272 -10.381 -84.238 -12.645 C-83.149 -13.06 -82.06 -13.475 -80.938 -13.902 C-54.966 -22.315 -21.89 -16.083 0 0 Z " fill="#030304" transform="translate(616.23828125,278.64453125)"/>
<path d="M0 0 C1.081 -0.011 2.161 -0.022 3.275 -0.033 C4.461 -0.025 5.648 -0.017 6.87 -0.009 C8.131 -0.015 9.392 -0.022 10.691 -0.03 C14.194 -0.048 17.696 -0.042 21.199 -0.031 C24.975 -0.024 28.752 -0.04 32.528 -0.053 C39.928 -0.075 47.328 -0.075 54.727 -0.067 C60.741 -0.06 66.755 -0.062 72.769 -0.068 C73.624 -0.069 74.48 -0.07 75.361 -0.071 C77.098 -0.073 78.836 -0.074 80.573 -0.076 C96.875 -0.093 113.177 -0.084 129.479 -0.067 C144.396 -0.053 159.313 -0.067 174.23 -0.096 C189.542 -0.126 204.854 -0.137 220.166 -0.127 C221.898 -0.126 223.629 -0.125 225.361 -0.124 C226.639 -0.123 226.639 -0.123 227.943 -0.123 C233.949 -0.12 239.955 -0.13 245.961 -0.145 C253.282 -0.162 260.602 -0.162 267.922 -0.139 C271.658 -0.128 275.393 -0.125 279.128 -0.144 C283.177 -0.164 287.225 -0.145 291.273 -0.122 C293.047 -0.14 293.047 -0.14 294.855 -0.158 C303.712 -0.057 303.712 -0.057 307.41 2.922 C309.459 5.235 310.525 6.47 311.187 9.421 C311.364 10.16 311.542 10.898 311.724 11.659 C311.89 12.45 312.056 13.242 312.226 14.057 C312.421 14.895 312.615 15.733 312.815 16.597 C313.444 19.333 314.04 22.075 314.636 24.819 C315.068 26.727 315.502 28.635 315.938 30.542 C317.222 36.19 318.463 41.847 319.699 47.506 C320.039 49.053 320.379 50.6 320.72 52.147 C321.899 57.502 323.072 62.858 324.226 68.218 C326.347 78.045 328.678 87.811 331.075 97.574 C333.262 106.543 335.259 115.543 337.199 124.569 C339.376 134.699 341.705 144.775 344.261 154.819 C346.688 164.353 348.987 173.905 351.136 183.506 C351.395 184.653 351.655 185.799 351.922 186.98 C352.156 188.041 352.391 189.101 352.632 190.194 C352.839 191.126 353.046 192.058 353.259 193.018 C353.699 195.506 353.699 195.506 353.699 199.506 C314.241 199.575 274.783 199.628 235.324 199.659 C230.67 199.663 226.016 199.667 221.362 199.671 C219.973 199.672 219.973 199.672 218.555 199.673 C203.534 199.686 188.514 199.71 173.493 199.738 C158.091 199.766 142.689 199.782 127.287 199.788 C117.776 199.793 108.266 199.806 98.755 199.83 C92.241 199.846 85.727 199.851 79.213 199.847 C75.45 199.845 71.687 199.848 67.924 199.864 C63.852 199.881 59.78 199.875 55.708 199.867 C54.508 199.876 53.307 199.884 52.071 199.893 C50.445 199.884 50.445 199.884 48.786 199.875 C47.845 199.876 46.904 199.878 45.935 199.879 C45.197 199.756 44.459 199.633 43.699 199.506 C41.662 196.451 40.997 194.327 40.113 190.799 C39.824 189.663 39.535 188.526 39.238 187.355 C38.936 186.147 38.635 184.939 38.324 183.694 C37.692 181.212 37.059 178.73 36.425 176.248 C36.124 175.066 35.823 173.884 35.512 172.665 C34.03 166.909 32.384 161.207 30.699 155.506 C26.151 140.113 21.821 124.68 17.682 109.173 C16.004 102.916 14.303 96.665 12.6 90.415 C12.03 88.327 11.463 86.238 10.895 84.149 C8.843 76.617 6.74 69.101 4.585 61.597 C3.479 57.739 2.395 53.874 1.324 50.006 C1.121 49.276 0.918 48.546 0.709 47.794 C-0.502 43.426 -1.697 39.053 -2.883 34.678 C-3.284 33.202 -3.284 33.202 -3.692 31.696 C-4.212 29.778 -4.73 27.86 -5.246 25.942 C-6.233 22.296 -7.235 18.7 -8.454 15.123 C-9.705 11.258 -9.694 8.566 -9.301 4.506 C-6.481 0.822 -4.58 0.006 0 0 Z " fill="#FEFEFE" transform="translate(253.3011989593506,573.493842124939)"/>
<path d="M0 0 C0.355 15.875 0.355 15.875 -1.441 23.27 C-2.031 26.149 -2.326 29.012 -2.601 31.936 C-4.488 51.437 -11.388 71.396 -26 85 C-26.686 85.655 -27.372 86.31 -28.078 86.984 C-38.016 95.597 -49.929 98.112 -62.727 97.477 C-76.586 96.257 -87.083 86.956 -95.84 76.809 C-103.55 66.784 -112 51.977 -112 39 C-110.698 39.012 -109.396 39.023 -108.055 39.035 C-106.328 39.045 -104.602 39.054 -102.875 39.062 C-102.019 39.071 -101.163 39.079 -100.281 39.088 C-95.733 39.105 -91.476 38.932 -87 38 C-86.608 39.093 -86.216 40.186 -85.812 41.312 C-84.667 43.945 -83.988 45.01 -81.75 46.938 C-78.179 48.317 -75.8 48.543 -72 48 C-69.06 45.646 -69.06 45.646 -67 43 C-67.773 43.495 -67.773 43.495 -68.562 44 C-71.914 45.375 -74.41 45.385 -78 45 C-80.5 43.625 -80.5 43.625 -82 41 C-82.529 34.346 -80.23 27.76 -78.452 21.422 C-77.199 16.927 -76.379 12.644 -76 8 C-73.625 7.375 -73.625 7.375 -71 7 C-68.272 9.728 -68.601 11.628 -68.25 15.438 C-67.162 23.464 -65.137 30.134 -59.086 35.789 C-51.272 40.731 -39.911 40.223 -31 39 C-28.206 38.186 -25.686 37.152 -23 36 C-22.01 35.67 -21.02 35.34 -20 35 C-18.913 32.786 -18.913 32.786 -18 30 C-17.509 28.991 -17.018 27.981 -16.512 26.941 C-14.566 22.437 -14.214 17.912 -13.812 13.062 C-13.731 12.188 -13.649 11.313 -13.564 10.412 C-13.366 8.276 -13.182 6.138 -13 4 C-11.399 3.327 -9.794 2.662 -8.188 2 C-7.294 1.629 -6.401 1.257 -5.48 0.875 C-3 0 -3 0 0 0 Z " fill="#FEFEFE" transform="translate(628,389)"/>
<path d="M0 0 C0.085 4.188 0.115 8.223 -0.5 12.375 C-1.909 22.588 -1.23 29.466 5 38 C7.262 40.408 9.612 42.679 12.012 44.949 C16.725 49.811 17.427 55.47 18 62 C15.36 62.66 12.72 63.32 10 64 C9.773 63.381 9.546 62.762 9.312 62.125 C7.539 59.253 6.235 58.914 3 58 C-3.981 56.884 -10.877 56.817 -17.938 56.812 C-19.066 56.8 -20.195 56.788 -21.357 56.775 C-29.023 56.762 -35.737 57.579 -43 60 C-44.219 62.504 -44.219 62.504 -45 65 C-47.97 65 -50.94 65 -54 65 C-54.186 63.855 -54.186 63.855 -54.375 62.688 C-56.622 58.971 -58.775 58.719 -62.849 57.587 C-69.057 56.431 -75.338 56.694 -81.625 56.812 C-83.025 56.828 -84.424 56.841 -85.824 56.854 C-89.217 56.889 -92.608 56.938 -96 57 C-96.167 54.625 -96.333 52.25 -96.5 49.875 C-96.552 49.167 -96.604 48.459 -96.658 47.73 C-97.114 40.824 -97.044 33.918 -97 27 C-95.596 26.986 -95.596 26.986 -94.165 26.972 C-61.118 26.557 -30.29 22.325 -3.082 1.539 C-1 0 -1 0 0 0 Z " fill="#FEFEFE" transform="translate(605,320)"/>
<path d="M0 0 C2.542 -0.082 5.082 -0.141 7.625 -0.188 C8.338 -0.213 9.051 -0.238 9.785 -0.264 C15.42 -0.341 19.402 0.764 23.793 4.543 C24.253 5.086 24.713 5.628 25.188 6.188 C25.655 6.717 26.123 7.247 26.605 7.793 C31.076 14.868 31.444 21.281 31.312 29.438 C31.316 30.404 31.319 31.37 31.322 32.365 C31.209 48.208 28.291 63.411 24.875 78.812 C24.475 80.644 24.076 82.476 23.677 84.308 C22.463 89.874 21.233 95.437 20 101 C19.615 102.741 19.23 104.481 18.846 106.222 C17.454 112.516 16.06 118.81 14.652 125.101 C12.721 133.724 10.839 142.356 9 151 C0.42 151 -8.16 151 -17 151 C-14.885 148.885 -12.76 146.779 -10.562 144.75 C-2.452 136.046 1.256 125.064 3.219 113.512 C3.387 112.524 3.555 111.536 3.728 110.518 C5.581 98.641 5.607 86.806 5.5 74.812 C5.496 73.646 5.492 72.479 5.488 71.277 C5.414 52.121 4.142 33.369 1.458 14.413 C0.815 9.621 0.377 4.819 0 0 Z " fill="#FEFEFE" transform="translate(777,622)"/>
<path d="M0 0 C-0.125 2.312 -0.125 2.312 -1 5 C-2.982 6.034 -4.984 7.032 -7 8 C-8.881 10.548 -8.881 10.548 -10 13 C-9.359 13.037 -8.719 13.075 -8.059 13.113 C-2.461 13.539 2.133 14.101 7 17 C8.062 19.438 8.062 19.438 8 22 C7.682 22.602 7.363 23.204 7.035 23.824 C5.037 28.025 4.992 32.505 6 37 C7.913 38.967 9.881 40.238 12.199 41.691 C14 43 14 43 14.812 45.75 C12.883 53.467 9.641 59.524 3 64 C-0.539 65.18 -3.337 65.062 -7.062 65 C-11.696 64.732 -11.696 64.732 -16 66 C-22.034 66.603 -26.105 65.389 -31 62 C-38.305 55.845 -42.151 47.146 -43.445 37.777 C-43.69 31.327 -42.876 26.238 -39 21 C-38.56 20.399 -38.121 19.799 -37.668 19.18 C-34.757 16.011 -32.771 15.079 -28.434 14.633 C-24.935 14.626 -21.488 14.739 -18 15 C-17.769 14.408 -17.539 13.817 -17.301 13.207 C-13.574 4.178 -10.066 -0.186 0 0 Z " fill="#FEFEFE" transform="translate(433,642)"/>
<path d="M0 0 C0.33 0 0.66 0 1 0 C1.098 1.172 1.196 2.344 1.297 3.551 C2.358 16.74 2.358 16.74 7 29 C7.928 29.743 8.856 30.485 9.812 31.25 C10.895 32.116 10.895 32.116 12 33 C12.438 40.306 7.903 46.723 3.211 52.02 C-1.856 56.805 -7.546 59.511 -14 62 C-15.152 62.481 -15.152 62.481 -16.328 62.973 C-26.012 66.514 -37.86 66.649 -47.5 63 C-53.313 60.202 -60.031 55.937 -63 50 C-63.072 47.116 -63.093 44.258 -63.062 41.375 C-63.058 40.573 -63.053 39.771 -63.049 38.945 C-63.037 36.964 -63.019 34.982 -63 33 C-62.261 33.289 -61.523 33.577 -60.762 33.875 C-51.25 37.356 -43.61 38.982 -34.125 34.688 C-20.321 27.086 -9.413 15.483 -1.348 2.09 C-0.681 1.055 -0.681 1.055 0 0 Z " fill="#FEFEFE" transform="translate(620,461)"/>
<path d="M0 0 C1.319 -0.021 2.637 -0.041 3.996 -0.062 C5.266 -0.068 6.536 -0.073 7.844 -0.078 C9.001 -0.087 10.158 -0.097 11.35 -0.106 C14.911 0.296 16.773 0.922 19.5 3.25 C20.115 5.683 20.115 5.683 20.094 8.547 C20.091 9.588 20.089 10.63 20.086 11.703 C20.043 13.335 20.043 13.335 20 15 C20.004 16.609 20.004 16.609 20.008 18.25 C19.919 25.48 19.147 30.623 14.812 36.562 C8.012 41.525 -1.478 40.961 -9.5 40.25 C-14.595 39.137 -17.657 36.722 -20.5 32.375 C-23.029 26.711 -22.961 20.914 -23 14.812 C-23.006 13.828 -23.013 12.844 -23.02 11.831 C-22.893 4.811 -22.893 4.811 -21.283 2.515 C-15.63 -1.496 -6.577 0.026 0 0 Z " fill="#FEFEFE" transform="translate(588.5,382.75)"/>
<path d="M0 0 C1.848 -0.018 1.848 -0.018 3.732 -0.037 C5.506 -0.04 5.506 -0.04 7.316 -0.043 C8.395 -0.047 9.473 -0.051 10.584 -0.055 C13.433 0.187 15.069 0.621 17.438 2.188 C20.825 8.963 19.165 21.99 17.188 29.062 C15.622 33.313 13.618 37.097 9.438 39.188 C6.506 39.366 3.621 39.465 0.688 39.5 C-0.112 39.529 -0.911 39.558 -1.734 39.588 C-7.175 39.646 -10.266 38.835 -14.562 35.188 C-19.354 27.917 -18.704 19.076 -18.625 10.688 C-18.62 9.77 -18.616 8.852 -18.611 7.906 C-18.6 5.667 -18.583 3.427 -18.562 1.188 C-12.414 -0.239 -6.281 0.003 0 0 Z " fill="#F5F5F5" transform="translate(526.5625,382.8125)"/>
<path d="M0 0 C0.99 0 1.98 0 3 0 C4.17 11.933 -2.265 22.596 -9 32 C-9.449 32.634 -9.897 33.268 -10.359 33.922 C-18.731 44.657 -31.859 52.475 -45.376 54.325 C-58.484 55.47 -68.674 53.177 -79.375 45.25 C-86.868 38.838 -93.316 29.433 -94.242 19.367 C-94.249 17.243 -94.137 15.12 -94 13 C-93.34 13 -92.68 13 -92 13 C-91.769 13.652 -91.539 14.305 -91.301 14.977 C-87.38 25.484 -81.49 31.225 -71.559 36.23 C-58.663 42.115 -45.514 41.316 -32.336 36.622 C-17.71 31.011 -8.46 22.262 -2 8 C-1.117 5.317 -0.525 2.782 0 0 Z " fill="#F5F5F5" transform="translate(640,492)"/>
<path d="M0 0 C-0.125 2.312 -0.125 2.312 -1 5 C-2.982 6.034 -4.984 7.032 -7 8 C-8.881 10.548 -8.881 10.548 -10 13 C-9.359 13.037 -8.719 13.075 -8.059 13.113 C-2.461 13.539 2.133 14.101 7 17 C8.062 19.438 8.062 19.438 8 22 C7.682 22.602 7.363 23.204 7.035 23.824 C5.037 28.025 4.992 32.505 6 37 C7.913 38.967 9.881 40.238 12.199 41.691 C14 43 14 43 14.812 45.75 C12.883 53.467 9.641 59.524 3 64 C-0.539 65.18 -3.337 65.062 -7.062 65 C-11.696 64.732 -11.696 64.732 -16 66 C-22.034 66.603 -26.105 65.389 -31 62 C-38.305 55.845 -42.151 47.146 -43.445 37.777 C-43.69 31.327 -42.876 26.238 -39 21 C-38.56 20.399 -38.121 19.799 -37.668 19.18 C-34.757 16.011 -32.771 15.079 -28.434 14.633 C-24.935 14.626 -21.488 14.739 -18 15 C-17.769 14.408 -17.539 13.817 -17.301 13.207 C-13.574 4.178 -10.066 -0.186 0 0 Z M-14 22 C-16.34 21.719 -18.673 21.375 -21 21 C-24.941 20.438 -28.317 20.086 -31.906 22.035 C-34.993 24.881 -35.892 27.308 -36.539 31.453 C-36.898 40.776 -35.526 47.705 -29.438 54.827 C-25.634 58.718 -22.874 60.463 -17.363 60.641 C-15.344 60.549 -13.327 60.418 -11.312 60.25 C-9.784 60.194 -9.784 60.194 -8.225 60.137 C-3.386 59.839 -0.763 59.6 3.121 56.547 C6.252 52.478 6.252 52.478 6.938 47.562 C5.7 44.179 3.56 42.497 1 40 C-1.847 34.848 -1.568 29.608 0 24.062 C0.33 23.052 0.66 22.041 1 21 C-1.464 19.768 -3.189 19.833 -5.938 19.812 C-7.25 19.791 -7.25 19.791 -8.59 19.77 C-11.262 19.833 -11.262 19.833 -14 22 Z " fill="#121213" transform="translate(433,642)"/>
<path d="M0 0 C1.32 0 2.64 0 4 0 C3.93 0.636 3.86 1.273 3.788 1.928 C2.817 11.887 2.804 21.817 2.812 31.812 C2.812 32.724 2.811 33.635 2.81 34.574 C2.811 45.862 3.062 57.004 4.284 68.236 C5.368 78.472 5.187 88.72 5 99 C5.652 98.989 6.303 98.978 6.974 98.967 C23.588 98.806 39.056 104.76 51.062 116.375 C55 120.502 55 120.502 55 124 C51.686 122.524 49.243 120.609 46.5 118.25 C33.842 107.993 21.043 104.376 5 105 C4.34 106.32 3.68 107.64 3 109 C3.659 109.093 4.317 109.186 4.996 109.281 C20.749 113.05 36.655 123.927 46 137 C46 137.99 46 138.98 46 140 C41.488 138.582 39.239 136.389 36 133 C26.586 123.586 15.167 118.002 2.668 113.91 C0 113 0 113 -1 112 C-0.911 110.421 -0.756 108.845 -0.574 107.273 C0.083 100.715 0.191 94.213 0.188 87.625 C0.188 86.389 0.189 85.153 0.189 83.879 C0.149 76.811 -0.175 69.892 -1 62.875 C-3.36 42.339 -3.257 20.417 0 0 Z " fill="#E7E7E7" transform="translate(690,578)"/>
<path d="M0 0 C3.258 2.156 6.234 4.468 8 8 C9.062 17.584 7.261 24.333 1.496 32 C-4.08 38.235 -11.84 41.615 -20 43 C-20.153 38.729 -20.138 35.519 -19.027 31.348 C-18.201 28.225 -17.824 25.317 -17.684 22.09 C-17.094 8.659 -17.094 8.659 -14.117 4.145 C-9.792 0.589 -5.611 -1.351 0 0 Z " fill="#F5F5F5" transform="translate(652,379)"/>
<path d="M0 0 C0.741 0.005 1.481 0.009 2.244 0.014 C4.059 0.025 5.873 0.043 7.688 0.062 C7.688 0.723 7.688 1.382 7.688 2.062 C5.065 3.374 2.449 3.533 -0.431 3.911 C-10.722 5.303 -19.858 7.789 -29.312 12.062 C-29.952 12.347 -30.591 12.632 -31.25 12.925 C-44.154 18.819 -56.15 27.43 -62.426 40.527 C-64.166 45.501 -63.675 49.284 -62.625 54.438 C-61.545 57.235 -61.545 57.235 -58.938 58.312 C-58.071 58.56 -57.205 58.808 -56.312 59.062 C-55.415 59.588 -55.415 59.588 -54.5 60.125 C-39.579 66.52 -16.264 62.895 -1.07 58.938 C2.352 58.141 5.196 57.887 8.688 58.062 C7.234 60.969 4.989 61.292 2.055 62.327 C-16.627 68.133 -41.382 71.299 -59.66 62.996 C-64.673 60.239 -67.158 57.359 -69.312 52.062 C-70.373 43.847 -67.293 37.604 -62.562 31 C-55.601 22.277 -48.048 16.545 -38.312 11.062 C-37.06 10.351 -37.06 10.351 -35.781 9.625 C-24.702 3.716 -12.573 -0.146 0 0 Z " fill="#E7E7E7" transform="translate(555.3125,270.9375)"/>
<path d="M0 0 C1.243 -0.024 1.243 -0.024 2.512 -0.049 C7.555 -0.053 11.187 0.403 15.5 3.312 C16.562 6.312 16.562 6.312 16.5 9.312 C15.311 10.984 15.311 10.984 13.5 12.312 C11.175 12.637 11.175 12.637 8.457 12.57 C7.465 12.556 6.473 12.542 5.451 12.527 C3.898 12.483 3.898 12.483 2.312 12.438 C0.277 12.394 -1.758 12.354 -3.793 12.32 C-4.765 12.304 -5.738 12.287 -6.74 12.271 C-9.264 12.309 -11.622 12.546 -14.113 12.93 C-15.231 13.056 -16.349 13.182 -17.5 13.312 C-19.5 11.312 -19.5 11.312 -19.875 8.375 C-19.5 5.312 -19.5 5.312 -17.875 3.562 C-11.912 0.424 -6.601 -0.026 0 0 Z " fill="#030304" transform="translate(585.5,360.6875)"/>
<path d="M0 0 C0.725 -0.007 1.45 -0.014 2.197 -0.021 C8.091 0.047 13.247 1.122 17.562 5.438 C16.994 11.006 16.994 11.006 15.562 12.438 C14.082 12.512 12.599 12.521 11.117 12.5 C10.205 12.492 9.292 12.485 8.352 12.477 C6.432 12.451 4.513 12.425 2.594 12.398 C-2.542 12.355 -7.378 12.54 -12.438 13.438 C-14.772 9.936 -15.11 8.557 -14.438 4.438 C-9.675 0.321 -6 -0.164 0 0 Z " fill="#030304" transform="translate(525.4375,360.5625)"/>
<path d="M0 0 C4.794 0.423 7.842 2.513 11 6 C23.726 23.926 28.664 46.457 25.701 68.192 C25.019 71.856 24.092 75.438 23 79 C22.01 79 21.02 79 20 79 C20.069 78.418 20.137 77.836 20.208 77.237 C22.739 54.191 22.298 30.87 9 11 C6.69 8.314 4.351 5.932 1.688 3.602 C1.131 3.073 0.574 2.545 0 2 C0 1.34 0 0.68 0 0 Z " fill="#E7E7E7" transform="translate(624,694)"/>
<path d="M0 0 C2.475 0.495 2.475 0.495 5 1 C5.668 2.758 5.668 2.758 6 5 C1.684 13.232 -7.594 17.198 -16 20 C-35.257 21.439 -35.257 21.439 -43 15 C-44.254 12.828 -44.254 12.828 -45 11 C-44.34 10.67 -43.68 10.34 -43 10 C-41.434 10.765 -39.897 11.589 -38.375 12.438 C-30.084 16.306 -21.111 16.749 -12.449 13.785 C-7.615 11.465 -3.522 9.109 0 5 C0.335 2.332 0.335 2.332 0 0 Z " fill="#121213" transform="translate(585,437)"/>
<path d="M0 0 C2.866 1.051 3.83 1.669 5.25 4.438 C6 7 6 7 6 10 C5.01 10 4.02 10 3 10 C3.062 11.072 3.124 12.145 3.188 13.25 C3 17 3 17 1.812 19.438 C0 21 0 21 -2.562 21.438 C-3.367 21.293 -4.171 21.149 -5 21 C-7.242 17.636 -7.271 16.377 -7.25 12.438 C-7.255 11.467 -7.26 10.496 -7.266 9.496 C-7 7 -7 7 -5 5 C-2.5 4.688 -2.5 4.688 0 5 C0.99 6.485 0.99 6.485 2 8 C1.34 5.36 0.68 2.72 0 0 Z " fill="#121213" transform="translate(534,387)"/>
<path d="M0 0 C2.375 0.312 2.375 0.312 5 1 C7.675 5.013 7.587 8.284 7 13 C5.5 15.562 5.5 15.562 4 17 C-0.564 16.52 -0.564 16.52 -2.312 14.438 C-3.303 10.924 -3.512 7.62 -3 4 C-1.5 1.5 -1.5 1.5 0 0 Z " fill="#121213" transform="translate(586,392)"/>
<path d="M0 0 C3.835 -0.357 5.553 -0.298 8.812 1.875 C11.609 4.592 11.943 5.396 12.312 9.312 C11.954 13.542 10.904 15.005 8 18 C7.01 17.67 6.02 17.34 5 17 C5.33 16.464 5.66 15.928 6 15.375 C7.25 12.407 7.278 10.192 7 7 C4.435 4.435 2.523 4.46 -1 4 C-0.67 2.68 -0.34 1.36 0 0 Z " fill="#121213" transform="translate(638,394)"/>
<path d="M0 0 C-0.312 2.875 -0.312 2.875 -1 6 C-4.089 8.059 -4.709 8.239 -8.188 8.125 C-10.075 8.063 -10.075 8.063 -12 8 C-12.33 6.35 -12.66 4.7 -13 3 C-11.397 2.495 -9.793 1.996 -8.188 1.5 C-7.294 1.222 -6.401 0.943 -5.48 0.656 C-3 0 -3 0 0 0 Z " fill="#E7E7E7" transform="translate(629,763)"/>
<path d="M0 0 C-1.283 2.565 -2.228 2.665 -4.875 3.625 C-5.923 4.016 -5.923 4.016 -6.992 4.414 C-9 5 -9 5 -12 5 C-12 4.34 -12 3.68 -12 3 C-13.32 2.67 -14.64 2.34 -16 2 C-10.62 0.809 -5.547 -0.292 0 0 Z " fill="#CDCDCD" transform="translate(564,329)"/>
<path d="M0 0 C2.866 1.051 3.83 1.669 5.25 4.438 C6 7 6 7 6 10 C5.01 10 4.02 10 3 10 C3 12.31 3 14.62 3 17 C2.67 17 2.34 17 2 17 C2.035 15.913 2.035 15.913 2.07 14.805 C2.17 9.454 2.165 5.006 0 0 Z " fill="#292929" transform="translate(534,387)"/>
<path d="M0 0 C4.714 2.357 4.714 2.357 6 6 C6 7.32 6 8.64 6 10 C5.01 10 4.02 10 3 10 C2.01 6.7 1.02 3.4 0 0 Z " fill="#1B1C1C" transform="translate(591,387)"/>
<path d="M0 0 C0.66 0 1.32 0 2 0 C1.67 2.64 1.34 5.28 1 8 C0.01 8.33 -0.98 8.66 -2 9 C-2.25 3.375 -2.25 3.375 0 0 Z " fill="#CDCDCD" transform="translate(475,556)"/>
<path d="M0 0 C-0.33 0.99 -0.66 1.98 -1 3 C-3.97 3 -6.94 3 -10 3 C-9 1 -9 1 -7.25 0.375 C-4.795 -0.034 -2.484 -0.069 0 0 Z " fill="#FEFEFE" transform="translate(544,333)"/>
<path d="M0 0 C-0.812 1.938 -0.812 1.938 -2 4 C-2.99 4.33 -3.98 4.66 -5 5 C-5 4.34 -5 3.68 -5 3 C-6.32 2.67 -7.64 2.34 -9 2 C-2.25 0 -2.25 0 0 0 Z " fill="#1B1C1C" transform="translate(561,432)"/>
</svg>